<svg xmlns="http://www.w3.org/2000/svg" xmlns:xlink="http://www.w3.org/1999/xlink" width="500"
    zoomAndPan="magnify" viewBox="0 -50 375 374.999991" height="500"
    preserveAspectRatio="xMidYMid meet" version="1.0">
    <defs>
        <g />
        <clipPath id="cd90aded07">
            <path d="M 156 85.5 L 219 85.5 L 219 118 L 156 118 Z M 156 85.5 " clip-rule="nonzero" />
        </clipPath>
        <clipPath id="1d8cd64d8a">
            <path
                d="M 127.710938 184 L 246.960938 184 L 246.960938 216 L 127.710938 216 Z M 127.710938 184 "
                clip-rule="nonzero" />
        </clipPath>
    </defs>
    <g clip-path="url(#cd90aded07)">
        <path fill="#64ffda"
            d="M 159.039062 116.660156 C 159.285156 116.582031 159.53125 116.523438 159.777344 116.457031 C 160.035156 116.414062 160.300781 116.394531 160.5625 116.367188 C 161.089844 116.109375 161.707031 116.265625 162.273438 116.214844 L 162.433594 115.867188 C 162.425781 114.890625 162.460938 113.902344 162.730469 112.960938 L 162.789062 112.519531 C 162.855469 112.367188 162.914062 112.214844 162.976562 112.0625 C 163.117188 111.714844 163.234375 111.355469 163.320312 110.984375 C 163.953125 109.792969 165.003906 108.925781 165.894531 107.941406 C 166.570312 107.695312 167.226562 107.410156 167.871094 107.085938 C 168.074219 106.957031 168.277344 106.824219 168.480469 106.6875 C 168.882812 106.535156 169.308594 106.441406 169.722656 106.320312 C 169.90625 106.238281 170.09375 106.171875 170.28125 106.078125 C 170.679688 105.949219 171.089844 105.867188 171.511719 105.839844 C 171.859375 105.777344 172.214844 105.746094 172.5625 105.6875 C 172.90625 105.566406 173.273438 105.601562 173.628906 105.578125 C 173.777344 105.507812 173.933594 105.46875 174.09375 105.453125 C 175.414062 105.414062 176.730469 105.414062 178.050781 105.484375 C 178.800781 105.703125 179.605469 105.558594 180.359375 105.789062 C 180.753906 105.910156 181.167969 105.890625 181.578125 105.941406 C 182.1875 106.039062 182.792969 106.109375 183.402344 106.246094 C 184.035156 106.460938 184.722656 106.328125 185.382812 106.398438 C 185.914062 106.550781 186.480469 106.472656 187.027344 106.457031 C 187.367188 106.335938 187.734375 106.363281 188.09375 106.339844 C 188.394531 106.242188 188.695312 106.167969 189.007812 106.113281 C 189.21875 106.074219 189.433594 106.035156 189.648438 105.984375 C 189.898438 105.945312 190.152344 105.910156 190.410156 105.875 C 190.707031 105.777344 191.011719 105.703125 191.324219 105.652344 C 191.828125 105.585938 192.328125 105.480469 192.820312 105.332031 C 192.972656 105.28125 193.132812 105.226562 193.292969 105.179688 L 193.558594 105.101562 C 193.765625 105.039062 193.976562 104.988281 194.191406 104.949219 C 194.441406 104.871094 194.695312 104.820312 194.953125 104.796875 C 195.257812 104.71875 195.5625 104.679688 195.867188 104.59375 L 197.066406 104.496094 C 197.617188 104.328125 198.179688 104.238281 198.753906 104.222656 C 199.820312 104.238281 200.886719 104.1875 201.949219 104.269531 C 202.152344 104.335938 202.359375 104.382812 202.570312 104.410156 C 202.816406 104.488281 203.070312 104.546875 203.316406 104.628906 C 203.847656 104.671875 204.355469 104.804688 204.84375 105.023438 C 205.121094 105.238281 205.429688 105.398438 205.765625 105.5 C 206.066406 105.621094 206.375 105.722656 206.6875 105.804688 C 207.519531 106.75 208.597656 107.46875 209.308594 108.523438 C 209.570312 108.925781 209.792969 109.351562 210.050781 109.757812 C 210.367188 110.507812 210.765625 111.230469 210.921875 112.039062 C 210.96875 112.308594 211.03125 112.574219 211.113281 112.839844 L 211.183594 113.132812 C 211.335938 113.460938 211.277344 113.84375 211.410156 114.179688 C 211.4375 114.691406 211.46875 115.203125 211.503906 115.714844 C 211.554688 115.890625 211.605469 116.070312 211.65625 116.25 C 212.261719 116.277344 212.871094 116.265625 213.480469 116.296875 C 214.015625 116.53125 214.628906 116.28125 215.167969 116.511719 C 215.453125 116.65625 215.757812 116.730469 216.078125 116.730469 C 216.230469 116.796875 216.394531 116.859375 216.558594 116.917969 C 216.816406 116.980469 217.078125 117.023438 217.339844 117.058594 C 217.695312 117.203125 218.019531 117.40625 218.304688 117.667969 C 218.324219 116.058594 218.304688 114.453125 218.261719 112.84375 C 218.0625 111.578125 218.058594 110.257812 217.757812 109.003906 C 217.707031 108.800781 217.664062 108.601562 217.605469 108.40625 C 217.542969 107.847656 217.441406 107.296875 217.300781 106.753906 C 217.253906 106.332031 217.148438 105.925781 216.980469 105.535156 C 216.773438 105.144531 216.71875 104.734375 216.808594 104.304688 C 216.980469 103.96875 216.921875 103.585938 217.042969 103.238281 C 217.085938 103.023438 217.140625 102.816406 217.207031 102.609375 C 217.304688 102.058594 217.386719 101.503906 217.453125 100.945312 C 217.609375 100.472656 217.636719 99.992188 217.539062 99.503906 C 217.253906 99.175781 216.988281 98.785156 216.558594 98.648438 C 215.832031 98.375 215.25 97.84375 214.578125 97.464844 C 213.972656 96.609375 212.875 96.398438 212.007812 95.910156 C 211.21875 95.257812 210.261719 94.859375 209.460938 94.222656 C 208.976562 93.789062 208.285156 93.800781 207.746094 93.460938 L 207.136719 93.160156 C 206.527344 92.71875 205.804688 92.515625 205.15625 92.160156 C 204.960938 92.027344 204.769531 91.898438 204.570312 91.78125 C 204.398438 91.707031 204.226562 91.628906 204.0625 91.535156 C 203.625 91.371094 203.164062 91.300781 202.730469 91.125 C 202.28125 90.882812 201.820312 90.667969 201.34375 90.484375 C 200.257812 90.03125 199.148438 89.65625 198.011719 89.359375 L 197.527344 89.105469 C 197.378906 89.054688 197.226562 89.007812 197.082031 88.960938 C 196.535156 88.808594 195.976562 88.722656 195.425781 88.589844 C 195.257812 88.546875 195.09375 88.5 194.929688 88.445312 C 194.738281 88.394531 194.546875 88.351562 194.359375 88.285156 C 194.113281 88.261719 193.871094 88.210938 193.632812 88.132812 C 193.160156 88.054688 192.6875 87.953125 192.226562 87.828125 C 191.820312 87.773438 191.414062 87.753906 191.007812 87.738281 C 190.414062 87.605469 189.792969 87.632812 189.195312 87.566406 C 188.644531 87.40625 188.0625 87.527344 187.519531 87.378906 C 187.300781 87.359375 187.078125 87.34375 186.863281 87.332031 C 187.121094 87.09375 187.351562 86.824219 187.546875 86.53125 C 187.796875 86.148438 188.199219 85.90625 188.449219 85.519531 C 188.042969 85.503906 187.636719 85.507812 187.230469 85.539062 C 186.941406 85.667969 186.625 85.652344 186.320312 85.679688 C 186.035156 85.84375 185.710938 85.796875 185.394531 85.832031 C 184.796875 86.007812 184.164062 86.007812 183.566406 86.164062 C 183.359375 86.226562 183.15625 86.289062 182.960938 86.355469 C 182.808594 86.40625 182.667969 86.457031 182.527344 86.507812 L 181.863281 86.847656 C 181.230469 86.972656 180.699219 87.328125 180.171875 87.679688 C 179.820312 87.886719 179.496094 88.15625 179.109375 88.289062 C 178.265625 88.808594 177.425781 89.332031 176.695312 90.003906 C 175.480469 90.902344 174.3125 91.859375 173.195312 92.875 C 172.855469 93.277344 172.632812 93.875 172.039062 93.941406 C 172.039062 93.683594 172.082031 93.4375 172.171875 93.195312 C 172.195312 93.042969 172.214844 92.890625 172.234375 92.738281 C 172.347656 92.433594 172.34375 92.117188 172.386719 91.804688 C 172.492188 91.308594 172.664062 90.828125 172.699219 90.320312 C 172.773438 90.074219 172.824219 89.820312 172.875 89.566406 C 173.039062 88.988281 173.289062 88.449219 173.617188 87.945312 C 173.304688 87.957031 173.003906 88.015625 172.714844 88.128906 C 172.363281 88.234375 172.015625 88.363281 171.679688 88.511719 C 171.335938 88.679688 170.984375 88.828125 170.621094 88.957031 C 170.054688 89.167969 169.589844 89.5625 169.074219 89.867188 C 168.289062 90.257812 167.800781 91.042969 166.992188 91.414062 C 166.761719 91.527344 166.542969 91.65625 166.332031 91.800781 C 166.128906 92.054688 165.902344 92.296875 165.703125 92.558594 C 165.109375 93.507812 163.976562 94.011719 163.492188 95.046875 C 163.3125 95.492188 162.996094 95.851562 162.707031 96.226562 C 162.109375 97.382812 161.25 98.429688 160.996094 99.726562 C 161.074219 100.613281 160.292969 101.113281 159.765625 101.691406 C 159.589844 101.960938 159.398438 102.222656 159.191406 102.472656 C 158.496094 103.113281 158.421875 104.074219 158.101562 104.910156 C 158.007812 105.117188 157.921875 105.324219 157.84375 105.535156 C 157.796875 105.6875 157.75 105.839844 157.710938 105.992188 C 157.671875 106.144531 157.597656 106.296875 157.546875 106.449219 C 157.414062 106.996094 157.332031 107.554688 157.195312 108.105469 C 157.144531 108.5625 157.125 109.015625 157.089844 109.472656 C 156.660156 112.128906 156.707031 114.84375 156.722656 117.539062 C 157.480469 117.210938 158.21875 116.808594 159.039062 116.660156 Z M 159.039062 116.660156 "
            fill-opacity="1" fill-rule="nonzero" />
    </g>
    <path fill="#64ffda"
        d="M 151.300781 134.296875 C 151.351562 134.496094 151.398438 134.695312 151.453125 134.890625 C 151.660156 135.714844 151.734375 136.589844 152.171875 137.335938 C 152.3125 137.777344 152.503906 138.199219 152.746094 138.59375 C 152.90625 138.847656 153.058594 139.117188 153.203125 139.382812 L 153.441406 139.597656 C 153.460938 139.671875 153.503906 139.816406 153.523438 139.890625 C 153.796875 140.335938 154.101562 140.757812 154.433594 141.160156 C 154.878906 141.53125 155.34375 141.863281 155.835938 142.164062 C 156.1875 142.667969 156.640625 143.039062 157.203125 143.28125 C 157.769531 143.511719 158.285156 143.84375 158.855469 144.054688 C 159.117188 144.152344 159.378906 144.242188 159.636719 144.34375 C 159.894531 144.371094 160.152344 144.402344 160.410156 144.453125 C 160.949219 144.640625 161.535156 144.496094 162.085938 144.660156 C 162.695312 144.703125 163.300781 144.699219 163.910156 144.699219 C 171.566406 144.699219 179.226562 144.660156 186.886719 144.675781 C 195.410156 144.65625 203.929688 144.75 212.441406 144.660156 C 213.050781 144.507812 213.671875 144.582031 214.285156 144.507812 C 214.53125 144.421875 214.789062 144.371094 215.046875 144.304688 C 215.359375 144.253906 215.667969 144.175781 215.96875 144.066406 C 216.222656 143.960938 216.480469 143.859375 216.730469 143.761719 C 216.867188 143.679688 217.003906 143.597656 217.140625 143.519531 C 217.824219 143.117188 218.585938 142.8125 219.101562 142.179688 C 219.90625 141.609375 220.800781 141.023438 221.148438 140.046875 C 221.410156 139.699219 221.6875 139.363281 221.9375 139.007812 C 222.152344 138.601562 222.34375 138.183594 222.511719 137.753906 C 222.644531 137.449219 222.800781 137.164062 222.929688 136.863281 C 222.984375 136.660156 223.035156 136.453125 223.082031 136.257812 C 223.246094 135.75 223.449219 135.253906 223.523438 134.722656 C 223.644531 134.234375 223.589844 133.71875 223.734375 133.230469 C 223.808594 131.707031 223.886719 130.167969 223.699219 128.652344 C 223.664062 128.179688 223.671875 127.695312 223.527344 127.234375 C 223.496094 127.042969 223.472656 126.851562 223.449219 126.664062 C 223.386719 126.511719 223.332031 126.359375 223.28125 126.214844 C 223.144531 125.703125 223 125.191406 222.847656 124.683594 L 222.609375 124.4375 C 222.390625 123.902344 222.136719 123.390625 221.847656 122.890625 C 221.542969 122.492188 221.171875 122.132812 220.980469 121.648438 C 220.46875 120.890625 219.703125 120.394531 218.972656 119.875 C 218.320312 119.21875 217.507812 118.765625 216.703125 118.324219 C 216.289062 118.078125 215.800781 118.078125 215.34375 117.980469 C 215.191406 117.921875 215.039062 117.859375 214.886719 117.796875 C 214.679688 117.777344 214.46875 117.757812 214.261719 117.734375 C 213.527344 117.5 212.742188 117.648438 211.980469 117.582031 C 211.679688 117.507812 211.371094 117.476562 211.058594 117.496094 C 194.527344 117.503906 177.992188 117.472656 161.460938 117.511719 C 160.878906 117.714844 160.222656 117.601562 159.660156 117.898438 C 159.355469 117.992188 159.042969 118.070312 158.726562 118.128906 C 158.480469 118.257812 158.230469 118.375 157.976562 118.492188 C 157.320312 118.824219 156.636719 119.140625 156.101562 119.652344 C 155.425781 120.351562 154.511719 120.78125 153.957031 121.609375 C 153.363281 122.589844 152.515625 123.445312 152.222656 124.589844 L 151.964844 124.988281 C 151.703125 125.628906 151.59375 126.316406 151.433594 126.988281 C 151.039062 128.621094 151.042969 130.316406 151.054688 131.992188 C 151.292969 132.730469 151.085938 133.539062 151.300781 134.296875 Z M 155.257812 129.105469 C 155.28125 128.695312 155.296875 128.289062 155.324219 127.878906 C 155.421875 127.566406 155.515625 127.25 155.644531 126.945312 C 155.703125 126.804688 155.761719 126.664062 155.820312 126.527344 C 155.921875 126.222656 155.972656 125.886719 156.121094 125.597656 C 156.910156 124.484375 157.765625 123.335938 159.027344 122.730469 C 159.363281 122.527344 159.71875 122.355469 160.089844 122.21875 L 160.414062 122.167969 C 160.597656 122.074219 160.785156 121.988281 160.972656 121.898438 L 161.289062 121.847656 C 161.644531 121.738281 162.015625 121.695312 162.375 121.613281 C 163.839844 121.496094 165.3125 121.5625 166.777344 121.546875 C 181.796875 121.546875 196.8125 121.53125 211.820312 121.582031 C 212.332031 121.660156 212.839844 121.734375 213.359375 121.765625 C 213.59375 121.84375 213.84375 121.898438 214.082031 121.976562 C 214.578125 122.242188 215.148438 122.316406 215.644531 122.558594 C 216.335938 122.636719 216.578125 123.335938 217.097656 123.6875 C 217.589844 124.144531 218.113281 124.601562 218.519531 125.136719 C 218.683594 125.539062 218.8125 125.957031 218.992188 126.355469 L 219.1875 126.636719 C 219.257812 126.847656 219.328125 127.066406 219.390625 127.285156 C 219.46875 127.53125 219.523438 127.785156 219.609375 128.03125 C 219.6875 129.898438 219.75 131.777344 219.59375 133.644531 C 219.535156 133.855469 219.488281 134.066406 219.453125 134.28125 C 219.390625 134.476562 219.339844 134.671875 219.300781 134.871094 C 219.21875 135.078125 219.148438 135.285156 219.0625 135.492188 C 218.816406 135.996094 218.789062 136.613281 218.378906 137.03125 C 217.699219 137.925781 216.957031 138.785156 216.070312 139.480469 C 215.261719 139.425781 214.730469 140.195312 213.9375 140.253906 L 213.632812 140.324219 C 212.835938 140.515625 212.023438 140.597656 211.199219 140.5625 C 202.679688 140.5625 194.15625 140.558594 185.636719 140.546875 C 177.816406 140.53125 170 140.574219 162.183594 140.535156 C 161.726562 140.457031 161.269531 140.363281 160.8125 140.25 C 160.617188 140.171875 160.421875 140.097656 160.226562 140.03125 C 159.636719 139.828125 159.144531 139.398438 158.507812 139.308594 L 158.230469 139.164062 C 157.871094 138.519531 157.164062 138.175781 156.808594 137.53125 C 156.289062 137.007812 155.894531 136.367188 155.832031 135.617188 C 155.730469 135.371094 155.644531 135.113281 155.527344 134.875 C 155.453125 134.625 155.386719 134.378906 155.308594 134.132812 C 155.273438 133.769531 155.308594 133.390625 155.167969 133.042969 C 155.21875 131.734375 155.09375 130.40625 155.265625 129.101562 Z M 155.257812 129.105469 "
        fill-opacity="1" fill-rule="nonzero" />
    <path fill="#64ffda"
        d="M 157.121094 133.117188 C 157.121094 133.746094 157.210938 134.398438 157.558594 134.933594 C 157.863281 135.390625 157.96875 135.953125 158.261719 136.421875 C 158.539062 136.867188 159.042969 137.066406 159.488281 137.300781 C 159.667969 137.496094 159.867188 137.671875 160.082031 137.828125 C 160.378906 138.007812 160.683594 138.160156 161.003906 138.296875 L 161.34375 138.335938 C 161.730469 138.457031 162.128906 138.605469 162.542969 138.589844 C 170.761719 138.628906 178.976562 138.570312 187.195312 138.589844 C 195.613281 138.589844 204.035156 138.589844 212.460938 138.589844 C 213.25 138.507812 213.988281 138.273438 214.679688 137.882812 C 215.070312 137.554688 215.488281 137.261719 215.929688 137 C 216.125 136.960938 216.359375 136.9375 216.441406 136.714844 C 216.816406 136.082031 217.085938 135.390625 217.433594 134.738281 C 217.511719 134.53125 217.585938 134.328125 217.675781 134.128906 C 217.671875 133.847656 217.714844 133.574219 217.808594 133.3125 C 217.808594 132.511719 217.792969 131.710938 217.800781 130.910156 C 217.824219 130.550781 217.808594 130.199219 217.75 129.84375 C 217.890625 129.234375 217.65625 128.625 217.675781 128.019531 C 217.542969 127.605469 217.386719 127.199219 217.210938 126.800781 C 216.671875 126.332031 216.582031 125.546875 216.015625 125.105469 C 215.636719 124.789062 215.144531 124.664062 214.726562 124.410156 C 214.53125 124.289062 214.328125 124.175781 214.125 124.074219 C 213.578125 123.714844 212.910156 123.738281 212.300781 123.574219 C 208.496094 123.507812 204.691406 123.574219 200.886719 123.558594 C 188.304688 123.585938 175.726562 123.5 163.148438 123.53125 C 162.835938 123.511719 162.527344 123.539062 162.222656 123.613281 C 161.972656 123.667969 161.722656 123.714844 161.480469 123.785156 C 161.273438 123.859375 161.070312 123.9375 160.871094 124.023438 C 160.382812 124.25 159.929688 124.53125 159.46875 124.796875 C 159.148438 124.988281 158.84375 125.195312 158.554688 125.429688 C 158.203125 125.980469 157.945312 126.59375 157.535156 127.109375 C 157.3125 127.691406 157.085938 128.300781 157.117188 128.9375 C 157.121094 130.339844 157.109375 131.730469 157.121094 133.117188 Z M 157.121094 133.117188 "
        fill-opacity="1" fill-rule="nonzero" />
    <path fill="#64ffda"
        d="M 208.78125 162.429688 C 209.414062 161.476562 209.847656 160.417969 210.28125 159.367188 C 210.472656 159.09375 210.636719 158.804688 210.773438 158.5 C 210.820312 158.351562 210.863281 158.183594 210.90625 158.019531 C 210.976562 157.878906 211.054688 157.742188 211.136719 157.605469 C 211.210938 157.425781 211.285156 157.246094 211.359375 157.070312 C 211.589844 156.539062 211.769531 155.992188 211.902344 155.429688 C 212.007812 155.003906 212.015625 154.527344 212.359375 154.210938 C 212.371094 154.140625 212.394531 154.003906 212.410156 153.933594 C 212.488281 153.679688 212.546875 153.421875 212.589844 153.160156 C 212.65625 152.78125 212.75 152.410156 212.863281 152.042969 C 212.953125 151.800781 213.015625 151.554688 213.109375 151.3125 C 213.242188 150.5 213.285156 149.660156 213.550781 148.878906 C 213.71875 148.171875 213.75 147.445312 213.804688 146.726562 C 213.957031 146.261719 213.890625 145.769531 213.902344 145.289062 C 213.253906 145.351562 212.613281 145.464844 211.976562 145.585938 C 211.15625 145.609375 210.335938 145.585938 209.515625 145.605469 C 209.492188 146.601562 209.542969 147.613281 209.363281 148.589844 C 209.34375 148.847656 209.304688 149.101562 209.246094 149.351562 C 209.1875 149.503906 209.128906 149.65625 209.074219 149.796875 C 209.003906 150.425781 208.921875 151.0625 208.675781 151.652344 C 208.585938 151.890625 208.523438 152.144531 208.441406 152.386719 C 208.429688 152.464844 208.398438 152.617188 208.386719 152.691406 C 208.300781 152.996094 208.242188 153.3125 208.164062 153.621094 C 208.109375 153.761719 208.054688 153.90625 208 154.046875 C 207.917969 154.25 207.832031 154.457031 207.761719 154.667969 C 207.570312 155.15625 207.414062 155.652344 207.289062 156.160156 C 207.238281 156.234375 207.136719 156.378906 207.082031 156.453125 C 207.027344 156.679688 206.953125 156.898438 206.859375 157.113281 C 206.554688 157.597656 206.4375 158.175781 206.070312 158.625 C 205.609375 159.222656 205.242188 159.875 204.964844 160.578125 C 204.683594 161.21875 204.164062 161.699219 203.75 162.253906 C 203.207031 163.011719 202.460938 163.605469 201.921875 164.375 C 201.515625 164.984375 200.867188 165.355469 200.402344 165.914062 C 199.675781 166.445312 199.125 167.183594 198.355469 167.660156 C 197.792969 168.054688 197.417969 168.695312 196.757812 168.945312 C 195.882812 169.308594 195.304688 170.101562 194.523438 170.617188 C 194.015625 171.011719 193.339844 171.058594 192.824219 171.433594 C 192.355469 171.726562 191.941406 172.105469 191.433594 172.324219 C 190.945312 172.523438 190.484375 172.765625 190.046875 173.050781 C 189.804688 173.164062 189.554688 173.257812 189.308594 173.355469 C 188.242188 173.746094 187.089844 173.539062 185.980469 173.582031 C 185.613281 173.429688 185.246094 173.277344 184.890625 173.125 C 184.648438 172.996094 184.398438 172.871094 184.160156 172.742188 C 183.667969 172.472656 183.113281 172.324219 182.636719 172.023438 C 182.316406 171.703125 181.945312 171.464844 181.519531 171.300781 C 180.949219 171.007812 180.355469 170.742188 179.847656 170.34375 C 179.226562 169.828125 178.59375 169.277344 177.835938 168.988281 C 177.4375 168.710938 177.125 168.335938 176.769531 168.015625 C 176.3125 167.699219 175.886719 167.347656 175.464844 166.988281 C 175.1875 166.761719 174.9375 166.507812 174.714844 166.230469 C 174.363281 165.910156 173.953125 165.660156 173.628906 165.316406 C 173.398438 165.144531 173.203125 164.9375 173.046875 164.695312 C 172.222656 163.695312 171.285156 162.789062 170.507812 161.75 C 169.996094 161.335938 169.859375 160.671875 169.492188 160.152344 C 169.359375 159.894531 169.230469 159.632812 169.117188 159.367188 C 168.777344 158.871094 168.417969 158.382812 168.121094 157.855469 C 168.085938 157.703125 168.054688 157.5625 168.019531 157.417969 C 167.964844 157.347656 167.855469 157.207031 167.800781 157.136719 C 167.671875 156.648438 167.5 156.175781 167.28125 155.722656 C 166.976562 155.03125 166.855469 154.273438 166.507812 153.589844 C 166.449219 153.402344 166.40625 153.210938 166.355469 153.023438 C 166.285156 152.761719 166.234375 152.496094 166.203125 152.226562 C 166.128906 152.023438 166.050781 151.8125 165.976562 151.621094 C 165.863281 151.269531 165.785156 150.910156 165.671875 150.554688 C 165.648438 150.351562 165.628906 150.148438 165.609375 149.945312 C 165.457031 149.4375 165.332031 148.921875 165.238281 148.398438 C 165.203125 147.898438 165.175781 147.394531 165.167969 146.894531 C 164.949219 146.5 165.058594 146.035156 165.035156 145.605469 C 164.707031 145.59375 164.375 145.585938 164.046875 145.566406 C 163.800781 145.496094 163.546875 145.46875 163.285156 145.480469 C 162.375 145.496094 161.460938 145.390625 160.546875 145.453125 C 160.824219 145.722656 160.757812 146.125 160.875 146.464844 C 160.902344 146.964844 160.925781 147.46875 160.984375 147.96875 C 161.136719 148.375 161.019531 148.832031 161.191406 149.234375 C 161.359375 149.707031 161.382812 150.207031 161.4375 150.699219 C 161.527344 151.113281 161.648438 151.519531 161.792969 151.917969 C 161.914062 152.265625 162.015625 152.621094 162.09375 152.984375 C 162.132812 153.238281 162.1875 153.492188 162.257812 153.742188 C 162.300781 153.894531 162.347656 154.058594 162.410156 154.214844 C 162.46875 154.371094 162.507812 154.519531 162.5625 154.660156 C 162.8125 155.308594 162.886719 156 163.101562 156.65625 C 163.339844 157.144531 163.558594 157.636719 163.777344 158.136719 C 163.949219 158.507812 164.140625 158.867188 164.324219 159.230469 L 164.476562 159.535156 C 164.898438 160.269531 165.058594 161.128906 165.550781 161.820312 C 165.875 162.324219 166.105469 162.882812 166.488281 163.355469 C 166.867188 163.824219 167.304688 164.265625 167.484375 164.84375 C 167.515625 165.511719 167.480469 166.179688 167.375 166.839844 C 167.285156 167.296875 167.429688 167.816406 167.199219 168.246094 C 167.164062 168.597656 167.226562 168.972656 167.0625 169.296875 C 166.953125 170.296875 167.097656 171.324219 166.851562 172.308594 C 166.292969 172.929688 165.707031 173.519531 165.085938 174.074219 C 164.414062 174.734375 164.019531 175.597656 163.644531 176.441406 C 163.5625 176.578125 163.480469 176.710938 163.398438 176.851562 C 163.304688 177.164062 163.21875 177.484375 163.121094 177.800781 C 163.070312 178.21875 162.988281 178.628906 162.871094 179.035156 C 162.792969 179.269531 162.742188 179.511719 162.71875 179.757812 C 162.535156 180.398438 162.46875 181.167969 162.84375 181.753906 C 163.453125 182.441406 164.050781 183.183594 164.824219 183.691406 C 165.097656 183.824219 165.34375 183.996094 165.5625 184.203125 C 166.257812 184.792969 167.113281 185.167969 167.738281 185.839844 C 168.054688 186.152344 168.507812 186.242188 168.914062 186.398438 C 169.472656 186.566406 169.867188 187.027344 170.386719 187.277344 C 171.164062 187.667969 171.957031 188.039062 172.695312 188.496094 C 172.9375 188.632812 173.199219 188.714844 173.476562 188.738281 C 173.894531 188.878906 174.300781 189.046875 174.695312 189.246094 L 175.019531 189.40625 C 175.210938 189.492188 175.410156 189.585938 175.605469 189.671875 C 176.140625 189.816406 176.660156 190.003906 177.160156 190.238281 C 177.816406 190.621094 178.578125 190.710938 179.292969 190.917969 C 179.550781 190.964844 179.804688 191.039062 180.054688 191.132812 C 180.539062 191.339844 181.039062 191.519531 181.546875 191.664062 C 181.96875 191.730469 182.382812 191.832031 182.789062 191.96875 C 182.984375 192.019531 183.1875 192.070312 183.378906 192.136719 L 183.664062 192.214844 C 184.167969 192.34375 184.675781 192.445312 185.1875 192.515625 C 185.59375 192.660156 186.019531 192.761719 186.429688 192.902344 C 186.929688 192.953125 187.433594 192.960938 187.9375 192.929688 C 188.222656 192.800781 188.546875 192.777344 188.835938 192.6875 C 189.035156 192.640625 189.242188 192.605469 189.445312 192.542969 C 189.902344 192.46875 190.371094 192.367188 190.828125 192.269531 C 191.039062 192.214844 191.25 192.171875 191.460938 192.136719 C 191.613281 192.082031 191.765625 192.027344 191.917969 191.976562 C 192.15625 191.902344 192.394531 191.851562 192.632812 191.78125 C 192.839844 191.730469 193.050781 191.679688 193.257812 191.617188 C 193.617188 191.535156 193.96875 191.433594 194.316406 191.3125 C 194.621094 191.195312 194.925781 191.101562 195.226562 190.996094 L 195.542969 190.949219 C 195.949219 190.792969 196.367188 190.683594 196.800781 190.621094 C 197.015625 190.53125 197.226562 190.429688 197.4375 190.320312 C 198.054688 189.992188 198.753906 189.871094 199.378906 189.558594 C 199.933594 189.308594 200.445312 188.949219 201.054688 188.8125 C 201.964844 188.710938 202.625 187.996094 203.488281 187.722656 C 203.792969 187.5625 204.097656 187.417969 204.402344 187.265625 C 204.542969 187.148438 204.6875 187.039062 204.835938 186.933594 C 205.09375 186.78125 205.359375 186.628906 205.625 186.488281 C 205.984375 186.351562 206.359375 186.25 206.710938 186.097656 C 207.09375 185.867188 207.367188 185.488281 207.734375 185.242188 C 208.144531 184.945312 208.566406 184.667969 208.964844 184.355469 C 209.800781 183.714844 210.671875 183.113281 211.433594 182.386719 C 211.703125 182.011719 211.855469 181.546875 212.234375 181.257812 C 212.230469 180.96875 212.207031 180.679688 212.164062 180.394531 C 212.089844 180.101562 212.050781 179.800781 212.050781 179.5 C 211.964844 179.296875 211.910156 179.089844 211.882812 178.875 C 211.8125 178.621094 211.761719 178.363281 211.710938 178.113281 C 211.65625 177.917969 211.617188 177.714844 211.578125 177.519531 C 211.453125 177.09375 211.304688 176.675781 211.132812 176.265625 C 211.023438 176.113281 210.917969 175.960938 210.816406 175.796875 C 210.761719 175.652344 210.710938 175.511719 210.664062 175.371094 C 210.335938 174.914062 210.070312 174.433594 209.71875 174 C 209.386719 173.53125 208.773438 173.425781 208.324219 173.113281 C 208.277344 172.953125 208.238281 172.792969 208.207031 172.628906 C 208.144531 172.378906 208.097656 172.125 208.019531 171.886719 C 207.714844 171 207.6875 170.058594 207.621094 169.132812 C 207.5 168.628906 207.535156 168.101562 207.394531 167.609375 C 207.371094 167.257812 207.367188 166.90625 207.34375 166.554688 C 207.179688 166.058594 207.214844 165.523438 207.207031 165.007812 C 207.167969 164.765625 207.3125 164.578125 207.449219 164.398438 C 207.816406 163.6875 208.449219 163.160156 208.78125 162.429688 Z M 203.03125 177.832031 C 202.527344 178.070312 202.074219 178.382812 201.667969 178.765625 C 201.363281 178.871094 201.046875 178.945312 200.722656 178.988281 C 200.519531 179.082031 200.320312 179.183594 200.113281 179.285156 L 199.503906 179.605469 C 199.148438 179.773438 198.78125 179.910156 198.410156 180.046875 C 198.257812 180.101562 198.117188 180.15625 197.96875 180.207031 C 197.789062 180.273438 197.613281 180.339844 197.4375 180.414062 C 197.21875 180.523438 197 180.625 196.777344 180.71875 C 196.269531 180.761719 195.769531 180.871094 195.265625 180.957031 C 195.011719 181.027344 194.753906 181.078125 194.503906 181.148438 C 193.988281 181.464844 193.351562 181.28125 192.800781 181.484375 C 192.488281 181.511719 192.167969 181.515625 191.886719 181.652344 C 191.488281 181.6875 191.0625 181.609375 190.6875 181.785156 C 188.554688 181.871094 186.425781 181.882812 184.296875 181.796875 C 184.085938 181.800781 183.882812 181.765625 183.6875 181.6875 C 183.324219 181.652344 182.925781 181.738281 182.601562 181.546875 C 181.785156 181.535156 180.988281 181.359375 180.199219 181.179688 C 179.410156 180.847656 178.523438 180.949219 177.746094 180.570312 C 177.59375 180.507812 177.441406 180.453125 177.289062 180.398438 C 176.945312 180.273438 176.597656 180.152344 176.253906 180.027344 C 175.910156 179.902344 175.539062 179.742188 175.1875 179.597656 L 174.578125 179.253906 C 173.921875 178.984375 173.171875 178.914062 172.613281 178.441406 C 171.820312 177.808594 170.882812 177.375 170.09375 176.753906 C 170.167969 176.496094 170.222656 176.230469 170.273438 175.964844 C 170.328125 175.703125 170.375 175.472656 170.425781 175.226562 C 170.546875 174.921875 170.535156 174.605469 170.578125 174.292969 C 170.644531 174.089844 170.683594 173.878906 170.730469 173.675781 C 170.800781 173.425781 170.847656 173.171875 170.871094 172.914062 C 171.070312 172.480469 170.960938 171.988281 171.023438 171.535156 C 171.191406 170.542969 171.09375 169.535156 171.175781 168.539062 C 171.460938 168.871094 171.78125 169.160156 172.144531 169.40625 C 172.453125 169.898438 172.84375 170.316406 173.308594 170.667969 C 173.765625 171.03125 174.394531 171.144531 174.757812 171.628906 C 175.015625 172 175.402344 172.238281 175.785156 172.460938 C 176.921875 173.375 178.257812 174.023438 179.421875 174.910156 C 179.761719 175.171875 180.113281 175.414062 180.488281 175.632812 C 181.058594 175.90625 181.691406 176.035156 182.230469 176.375 C 182.6875 176.660156 183.160156 176.957031 183.703125 177.074219 C 184.65625 177.324219 185.566406 177.84375 186.582031 177.738281 C 187.742188 177.6875 188.957031 177.898438 190.0625 177.449219 C 190.519531 177.230469 191 177.082031 191.472656 176.90625 C 191.671875 176.804688 191.875 176.699219 192.082031 176.601562 L 192.378906 176.460938 C 192.988281 176.019531 193.746094 175.941406 194.375 175.558594 C 195.007812 175.234375 195.488281 174.683594 196.109375 174.339844 C 197.617188 173.410156 199.207031 172.539062 200.421875 171.21875 C 201.34375 170.898438 201.992188 170.164062 202.550781 169.402344 C 202.878906 169.164062 203.21875 168.945312 203.554688 168.710938 C 203.765625 169.480469 203.652344 170.300781 203.625 171.09375 C 203.679688 171.445312 203.710938 171.804688 203.753906 172.15625 C 203.8125 172.355469 203.851562 172.554688 203.90625 172.753906 C 204.019531 173.148438 204.019531 173.566406 204.125 173.964844 C 204.300781 174.726562 204.433594 175.496094 204.523438 176.273438 C 204.574219 176.464844 204.613281 176.660156 204.652344 176.859375 C 204.082031 177.164062 203.5625 177.492188 203.03125 177.832031 Z M 203.03125 177.832031 "
        fill-opacity="1" fill-rule="nonzero" />
    <path fill="#64ffda"
        d="M 178.082031 155.125 C 178.375 155.554688 178.714844 155.949219 179.101562 156.308594 C 179.859375 156.890625 180.382812 157.707031 181.078125 158.359375 C 181.417969 158.664062 181.839844 158.804688 182.238281 159.015625 C 182.542969 159.320312 182.808594 159.652344 183.214844 159.808594 C 183.652344 160.070312 184.101562 160.300781 184.570312 160.503906 C 185.035156 160.675781 185.511719 160.808594 185.988281 160.953125 C 186.261719 160.957031 186.527344 161.007812 186.78125 161.105469 C 187.476562 161 188.175781 161.027344 188.871094 160.941406 C 189.113281 160.871094 189.355469 160.8125 189.605469 160.765625 C 189.765625 160.710938 189.929688 160.664062 190.097656 160.613281 C 190.277344 160.492188 190.460938 160.371094 190.644531 160.257812 C 191.277344 159.957031 191.867188 159.589844 192.414062 159.148438 C 192.824219 158.84375 193.363281 158.699219 193.683594 158.265625 C 194.050781 157.78125 194.597656 157.453125 194.914062 156.929688 C 195.140625 156.492188 195.632812 156.308594 195.957031 155.960938 C 196.320312 155.558594 196.59375 155.089844 196.914062 154.65625 C 197.597656 153.984375 197.8125 152.992188 198.46875 152.292969 C 198.09375 152.378906 197.726562 152.496094 197.371094 152.640625 C 197.230469 152.699219 197.089844 152.753906 196.945312 152.808594 C 196.628906 152.90625 196.304688 152.988281 195.992188 153.09375 C 195.601562 153.222656 195.203125 153.332031 194.800781 153.421875 C 194.601562 153.488281 194.390625 153.53125 194.195312 153.582031 C 193.941406 153.648438 193.6875 153.699219 193.445312 153.78125 C 193.027344 153.859375 192.617188 153.960938 192.210938 154.085938 C 191.558594 154.140625 190.914062 154.269531 190.257812 154.324219 C 189.757812 154.476562 189.222656 154.394531 188.710938 154.488281 C 187.800781 154.667969 186.886719 154.515625 185.972656 154.503906 C 185.5625 154.425781 185.136719 154.449219 184.730469 154.339844 C 183.972656 154.289062 183.222656 154.199219 182.472656 154.070312 C 182.179688 153.992188 181.875 153.964844 181.582031 153.882812 C 181.332031 153.757812 181.066406 153.675781 180.789062 153.636719 C 180.332031 153.53125 179.863281 153.445312 179.40625 153.332031 C 178.800781 153.132812 178.191406 152.945312 177.582031 152.75 L 177.300781 152.566406 C 176.996094 152.429688 176.667969 152.3125 176.355469 152.183594 L 176.289062 152.214844 L 176.582031 152.671875 C 176.742188 153 176.917969 153.316406 177.117188 153.621094 C 177.402344 154.140625 177.757812 154.621094 178.082031 155.125 Z M 178.082031 155.125 "
        fill-opacity="1" fill-rule="nonzero" />
    <g clip-path="url(#1d8cd64d8a)">
        <path fill="#64ffda"
            d="M 247.101562 214.78125 C 247.078125 214.628906 247.054688 214.480469 247.03125 214.335938 C 246.957031 214.128906 246.902344 213.917969 246.863281 213.703125 C 246.683594 212.914062 246.675781 212.089844 246.550781 211.285156 C 246.464844 210.96875 246.457031 210.636719 246.332031 210.332031 C 246.3125 210.09375 246.300781 209.859375 246.285156 209.625 C 246.101562 209.273438 246.175781 208.863281 246.058594 208.492188 C 246.003906 208.300781 245.957031 208.113281 245.894531 207.925781 C 245.832031 207.417969 245.722656 206.917969 245.632812 206.417969 C 245.554688 206.113281 245.519531 205.808594 245.425781 205.503906 C 245.414062 205.421875 245.390625 205.257812 245.375 205.179688 C 245.292969 204.929688 245.222656 204.675781 245.144531 204.433594 C 245.0625 204.128906 244.964844 203.824219 244.898438 203.503906 C 244.726562 202.996094 244.632812 202.46875 244.449219 201.964844 C 244.296875 201.507812 244.183594 201.042969 243.992188 200.597656 C 243.796875 200.324219 243.691406 200.019531 243.675781 199.683594 C 243.511719 199.203125 243.289062 198.75 243.007812 198.328125 C 242.5 197.308594 241.820312 196.421875 240.972656 195.664062 C 240.730469 195.394531 240.542969 195.070312 240.257812 194.839844 C 239.613281 194.375 239.042969 193.816406 238.347656 193.410156 C 238.09375 193.261719 237.847656 193.101562 237.589844 192.957031 C 237.226562 192.769531 236.882812 192.558594 236.523438 192.375 C 235.867188 192.171875 235.316406 191.722656 234.652344 191.515625 C 234.347656 191.363281 234.035156 191.210938 233.726562 191.058594 C 233.082031 190.640625 232.300781 190.578125 231.597656 190.320312 C 231.460938 190.230469 231.328125 190.140625 231.199219 190.058594 L 230.730469 189.980469 L 230.445312 189.761719 C 230.113281 189.652344 229.792969 189.523438 229.46875 189.394531 L 229.050781 189.160156 C 228.667969 188.941406 228.257812 188.808594 227.820312 188.765625 C 227.566406 188.695312 227.308594 188.632812 227.058594 188.558594 C 226.742188 188.449219 226.433594 188.320312 226.136719 188.167969 C 225.941406 188.085938 225.746094 188.015625 225.554688 187.9375 C 225.0625 187.722656 224.539062 187.589844 224.035156 187.425781 C 223.636719 187.089844 223.121094 187.003906 222.625 186.929688 C 222.472656 186.882812 222.304688 186.839844 222.148438 186.800781 C 222.011719 186.71875 221.878906 186.640625 221.75 186.558594 C 221.113281 186.253906 220.378906 186.269531 219.746094 185.980469 C 219.269531 185.875 218.8125 185.710938 218.375 185.496094 C 217.9375 185.316406 217.488281 185.167969 217.027344 185.054688 C 216.488281 184.796875 215.925781 184.613281 215.335938 184.503906 C 214.871094 184.371094 214.398438 184.253906 213.9375 184.089844 C 213.386719 184.46875 212.929688 184.96875 212.371094 185.339844 C 211.984375 185.59375 211.789062 186.042969 211.394531 186.292969 C 210.832031 186.566406 210.3125 186.910156 209.839844 187.320312 C 209.429688 187.804688 208.941406 188.183594 208.371094 188.464844 C 207.636719 188.757812 206.96875 189.164062 206.367188 189.679688 C 205.507812 189.984375 204.824219 190.621094 204.03125 191.050781 C 203.46875 191.183594 202.929688 191.386719 202.417969 191.660156 C 201.855469 192.0625 201.203125 192.285156 200.550781 192.511719 C 200.417969 192.589844 200.289062 192.664062 200.15625 192.75 L 199.839844 192.875 C 199.671875 192.949219 199.507812 193.027344 199.34375 193.113281 C 198.761719 193.328125 198.167969 193.503906 197.5625 193.640625 C 197.296875 193.726562 197.042969 193.832031 196.800781 193.964844 C 196.585938 194.054688 196.371094 194.140625 196.152344 194.21875 C 195.546875 194.355469 194.957031 194.539062 194.382812 194.769531 C 193.816406 194.96875 193.203125 195 192.65625 195.257812 C 192.417969 195.335938 192.175781 195.390625 191.9375 195.464844 C 191.417969 195.53125 190.90625 195.632812 190.398438 195.769531 L 189.902344 195.851562 C 189.890625 196.484375 189.695312 197.089844 189.660156 197.722656 C 189.574219 198.027344 189.535156 198.332031 189.449219 198.636719 C 189.425781 199.046875 189.375 199.449219 189.296875 199.851562 C 189.242188 200.042969 189.191406 200.238281 189.125 200.425781 C 188.960938 201.132812 188.863281 201.855469 188.75 202.574219 C 188.628906 202.988281 188.527344 203.40625 188.445312 203.828125 C 188.371094 204.125 188.3125 204.425781 188.269531 204.730469 C 188.175781 205.078125 188.152344 205.4375 188.066406 205.796875 C 188.023438 206 187.988281 206.210938 187.933594 206.414062 C 187.875 206.617188 187.835938 206.8125 187.78125 207.007812 C 187.726562 207.203125 187.695312 207.429688 187.628906 207.636719 C 187.582031 208.054688 187.496094 208.460938 187.367188 208.863281 C 187.257812 208.394531 187.148438 207.925781 187.023438 207.460938 C 186.984375 207.207031 186.945312 206.953125 186.878906 206.707031 C 186.78125 206.203125 186.683594 205.699219 186.566406 205.203125 C 186.527344 204.996094 186.492188 204.789062 186.460938 204.59375 C 186.375 204.238281 186.324219 203.875 186.308594 203.507812 C 186.246094 203.3125 186.203125 203.113281 186.15625 202.917969 C 186.003906 202.421875 185.898438 201.914062 185.828125 201.398438 C 185.765625 201.097656 185.726562 200.792969 185.71875 200.484375 C 185.59375 200.179688 185.582031 199.84375 185.484375 199.53125 C 185.460938 199.273438 185.417969 199.019531 185.355469 198.769531 C 185.292969 198.121094 185.1875 197.480469 185.101562 196.835938 C 184.960938 196.539062 185 196.203125 184.929688 195.890625 C 184.777344 195.847656 184.625 195.808594 184.476562 195.777344 C 183.5625 195.511719 182.585938 195.488281 181.707031 195.101562 C 181.386719 195.039062 181.078125 194.949219 180.769531 194.859375 C 180.53125 194.777344 180.285156 194.722656 180.046875 194.640625 L 179.582031 194.519531 C 179.429688 194.46875 179.289062 194.417969 179.144531 194.367188 C 178.898438 194.238281 178.636719 194.15625 178.359375 194.128906 C 178.105469 194.027344 177.851562 193.925781 177.605469 193.816406 C 177.046875 193.523438 176.402344 193.511719 175.820312 193.292969 C 175.5 193.160156 175.179688 193.027344 174.859375 192.90625 C 173.964844 192.296875 172.835938 192.144531 171.992188 191.449219 C 171.347656 191.167969 170.558594 191.199219 170.035156 190.675781 C 169.40625 190.113281 168.570312 189.878906 167.929688 189.34375 C 167.414062 189.03125 166.910156 188.691406 166.332031 188.503906 C 165.25 187.753906 164.3125 186.804688 163.148438 186.175781 C 162.804688 185.765625 162.460938 185.347656 162.011719 185.046875 C 161.5625 184.746094 161.332031 184.160156 160.78125 184.101562 C 160.378906 184.300781 159.957031 184.429688 159.507812 184.480469 C 159.242188 184.574219 158.972656 184.667969 158.707031 184.761719 C 158.511719 184.839844 158.316406 184.910156 158.128906 185 L 157.839844 185.0625 C 157.535156 185.167969 157.214844 185.265625 156.898438 185.367188 L 156.328125 185.605469 C 156.175781 185.644531 156.023438 185.691406 155.859375 185.738281 C 155.652344 185.816406 155.445312 185.902344 155.238281 185.988281 C 154.53125 186.363281 153.675781 186.265625 152.976562 186.667969 C 151.898438 187.050781 150.851562 187.515625 149.746094 187.804688 C 149.421875 187.980469 149.082031 188.105469 148.71875 188.171875 C 148.558594 188.257812 148.394531 188.34375 148.230469 188.429688 C 147.605469 188.734375 146.878906 188.722656 146.238281 189.011719 C 145.859375 189.21875 145.464844 189.402344 145.058594 189.5625 C 144.855469 189.644531 144.648438 189.722656 144.4375 189.800781 C 144.132812 189.914062 143.828125 190.027344 143.542969 190.160156 C 142.910156 190.625 142.074219 190.542969 141.410156 190.921875 C 141.257812 190.992188 141.09375 191.074219 140.933594 191.152344 C 140.597656 191.347656 140.25 191.515625 139.886719 191.660156 C 139.667969 191.738281 139.464844 191.847656 139.277344 191.988281 C 138.898438 192.136719 138.535156 192.316406 138.1875 192.527344 C 137.820312 192.757812 137.457031 193.035156 137.007812 193.066406 C 136.554688 193.09375 136.273438 193.535156 135.953125 193.8125 C 135.601562 194.1875 135.105469 194.386719 134.777344 194.78125 C 134.472656 195.132812 134.015625 195.320312 133.738281 195.710938 C 133.601562 196.132812 133.222656 196.390625 132.96875 196.734375 C 132.585938 197.277344 132.105469 197.746094 131.769531 198.320312 C 131.660156 198.808594 131.535156 199.300781 131.242188 199.71875 C 131.144531 199.964844 131.046875 200.210938 130.945312 200.460938 C 130.707031 200.945312 130.59375 201.476562 130.414062 201.980469 C 130.378906 202.183594 130.328125 202.382812 130.261719 202.578125 C 130.175781 202.789062 130.085938 203 130.011719 203.21875 C 129.878906 203.773438 129.808594 204.335938 129.652344 204.882812 C 129.609375 205.089844 129.554688 205.292969 129.492188 205.492188 C 129.316406 205.917969 129.304688 206.382812 129.210938 206.832031 C 129.15625 207.136719 129.113281 207.449219 129.039062 207.753906 C 128.914062 208.050781 128.835938 208.359375 128.804688 208.675781 C 128.6875 209.324219 128.566406 209.96875 128.507812 210.625 C 128.320312 210.964844 128.460938 211.382812 128.257812 211.722656 C 128.242188 211.964844 128.230469 212.210938 128.214844 212.457031 C 127.984375 213.148438 128.015625 213.910156 127.890625 214.628906 C 127.738281 214.941406 127.792969 215.296875 127.765625 215.636719 C 151.027344 215.628906 174.289062 215.628906 197.550781 215.636719 C 214.117188 215.625 230.679688 215.65625 247.246094 215.625 C 247.230469 215.335938 247.179688 215.058594 247.101562 214.78125 Z M 247.101562 214.78125 "
            fill-opacity="1" fill-rule="nonzero" />
    </g>
    <g fill="#64ffda" fill-opacity="1">
        <g transform="translate(96.585936, 259.998674)">
            <g>
                <path
                    d="M 7.59375 -10.15625 L 7.59375 0 L 2 0 L 2 -25.875 L 13.6875 -25.875 L 13.6875 -21.046875 L 7.59375 -21.046875 L 7.59375 -14.84375 L 13.28125 -14.84375 L 13.28125 -10.15625 Z M 7.59375 -10.15625 " />
            </g>
        </g>
    </g>
    <g fill="#64ffda" fill-opacity="1">
        <g transform="translate(111.54445, 259.998674)">
            <g>
                <path
                    d="M 12.28125 -26.28125 C 15.582031 -26.28125 17.234375 -24.519531 17.234375 -21 L 17.234375 0 L 11.640625 0 L 11.640625 -8.6875 L 7.59375 -8.6875 L 7.59375 0 L 2 0 L 2 -21 C 2 -24.519531 3.648438 -26.28125 6.953125 -26.28125 Z M 7.59375 -13 L 11.640625 -13 L 11.640625 -21.6875 C 11.640625 -21.894531 11.566406 -22.078125 11.421875 -22.234375 C 11.273438 -22.398438 11.09375 -22.484375 10.875 -22.484375 L 8.359375 -22.484375 C 8.148438 -22.484375 7.96875 -22.398438 7.8125 -22.234375 C 7.664062 -22.078125 7.59375 -21.894531 7.59375 -21.6875 Z M 7.59375 -13 " />
            </g>
        </g>
    </g>
    <g fill="#64ffda" fill-opacity="1">
        <g transform="translate(130.942527, 259.998674)">
            <g>
                <path d="M 7.59375 -25.875 L 7.59375 0 L 2 0 L 2 -25.875 Z M 7.59375 -25.875 " />
            </g>
        </g>
    </g>
    <g fill="#64ffda" fill-opacity="1">
        <g transform="translate(140.701556, 259.998674)">
            <g>
                <path
                    d="M 16.359375 -19.078125 L 11.046875 -19.078125 L 11.046875 -21.125 C 11.046875 -21.332031 10.96875 -21.515625 10.8125 -21.671875 C 10.664062 -21.835938 10.488281 -21.921875 10.28125 -21.921875 L 8.078125 -21.921875 C 7.867188 -21.921875 7.6875 -21.835938 7.53125 -21.671875 C 7.382812 -21.515625 7.3125 -21.332031 7.3125 -21.125 L 7.3125 -16.515625 C 7.3125 -16.304688 7.382812 -16.117188 7.53125 -15.953125 C 7.6875 -15.796875 7.867188 -15.71875 8.078125 -15.71875 L 11.6875 -15.71875 C 14.988281 -15.664062 16.640625 -13.90625 16.640625 -10.4375 L 16.640625 -4.875 C 16.640625 -1.351562 14.988281 0.40625 11.6875 0.40625 L 6.953125 0.40625 C 3.648438 0.40625 2 -1.351562 2 -4.875 L 2 -7.5625 L 7.3125 -7.5625 L 7.3125 -4.6875 C 7.3125 -4.46875 7.382812 -4.273438 7.53125 -4.109375 C 7.6875 -3.953125 7.867188 -3.875 8.078125 -3.875 L 10.5625 -3.875 C 10.769531 -3.875 10.945312 -3.953125 11.09375 -4.109375 C 11.238281 -4.273438 11.3125 -4.46875 11.3125 -4.6875 L 11.3125 -9.765625 C 11.3125 -9.972656 11.238281 -10.15625 11.09375 -10.3125 C 10.945312 -10.476562 10.769531 -10.5625 10.5625 -10.5625 L 6.953125 -10.5625 C 3.648438 -10.5625 2 -12.320312 2 -15.84375 L 2 -21 C 2 -24.519531 3.648438 -26.28125 6.953125 -26.28125 L 11.40625 -26.28125 C 14.707031 -26.28125 16.359375 -24.519531 16.359375 -21 Z M 16.359375 -19.078125 " />
            </g>
        </g>
    </g>
    <g fill="#64ffda" fill-opacity="1">
        <g transform="translate(159.019735, 259.998674)">
            <g>
                <path
                    d="M 12.28125 -26.28125 C 15.582031 -26.28125 17.234375 -24.519531 17.234375 -21 L 17.234375 0 L 11.640625 0 L 11.640625 -8.6875 L 7.59375 -8.6875 L 7.59375 0 L 2 0 L 2 -21 C 2 -24.519531 3.648438 -26.28125 6.953125 -26.28125 Z M 7.59375 -13 L 11.640625 -13 L 11.640625 -21.6875 C 11.640625 -21.894531 11.566406 -22.078125 11.421875 -22.234375 C 11.273438 -22.398438 11.09375 -22.484375 10.875 -22.484375 L 8.359375 -22.484375 C 8.148438 -22.484375 7.96875 -22.398438 7.8125 -22.234375 C 7.664062 -22.078125 7.59375 -21.894531 7.59375 -21.6875 Z M 7.59375 -13 " />
            </g>
        </g>
    </g>
    <g fill="#64ffda" fill-opacity="1">
        <g transform="translate(178.417812, 259.998674)">
            <g>
                <path
                    d="M 7.59375 -4.71875 L 13.71875 -4.71875 L 13.71875 0 L 2 0 L 2 -25.875 L 7.59375 -25.875 Z M 7.59375 -4.71875 " />
            </g>
        </g>
    </g>
    <g fill="#64ffda" fill-opacity="1">
        <g transform="translate(200.855578, 259.998674)">
            <g>
                <path
                    d="M 18.125 -25.875 L 13.71875 -14 L 18.953125 0 L 13.234375 0 L 9.40625 -10.234375 L 7.59375 -10.234375 L 7.59375 0 L 2 0 L 2 -25.875 L 7.59375 -25.875 L 7.59375 -15.046875 L 8.953125 -15.046875 L 13 -25.875 Z M 18.125 -25.875 " />
            </g>
        </g>
    </g>
    <g fill="#64ffda" fill-opacity="1">
        <g transform="translate(219.733704, 259.998674)">
            <g>
                <path
                    d="M 7.59375 -10.15625 L 7.59375 0 L 2 0 L 2 -25.875 L 7.59375 -25.875 L 7.59375 -15.046875 L 12.046875 -15.046875 L 12.046875 -25.875 L 17.640625 -25.875 L 17.640625 0 L 12.046875 0 L 12.046875 -10.15625 Z M 7.59375 -10.15625 " />
            </g>
        </g>
    </g>
    <g fill="#64ffda" fill-opacity="1">
        <g transform="translate(239.371753, 259.998674)">
            <g>
                <path
                    d="M 12.28125 -26.28125 C 15.582031 -26.28125 17.234375 -24.519531 17.234375 -21 L 17.234375 0 L 11.640625 0 L 11.640625 -8.6875 L 7.59375 -8.6875 L 7.59375 0 L 2 0 L 2 -21 C 2 -24.519531 3.648438 -26.28125 6.953125 -26.28125 Z M 7.59375 -13 L 11.640625 -13 L 11.640625 -21.6875 C 11.640625 -21.894531 11.566406 -22.078125 11.421875 -22.234375 C 11.273438 -22.398438 11.09375 -22.484375 10.875 -22.484375 L 8.359375 -22.484375 C 8.148438 -22.484375 7.96875 -22.398438 7.8125 -22.234375 C 7.664062 -22.078125 7.59375 -21.894531 7.59375 -21.6875 Z M 7.59375 -13 " />
            </g>
        </g>
    </g>
    <g fill="#64ffda" fill-opacity="1">
        <g transform="translate(258.769831, 259.998674)">
            <g>
                <path
                    d="M 7.59375 -10.15625 L 7.59375 0 L 2 0 L 2 -25.875 L 7.59375 -25.875 L 7.59375 -15.046875 L 12.046875 -15.046875 L 12.046875 -25.875 L 17.640625 -25.875 L 17.640625 0 L 12.046875 0 L 12.046875 -10.15625 Z M 7.59375 -10.15625 " />
            </g>
        </g>
    </g>
</svg>